<svg height="511pt" viewBox="-22 0 511 511.99597" width="511pt" xmlns="http://www.w3.org/2000/svg"><path d="m404.714844 84.851562-21.214844-21.210937 63.640625-63.640625 21.210937 21.214844zm0 0" fill="#5a5a5a"/><path d="m404.714844 84.851562-10.605469-10.605468 63.636719-63.640625 10.605468 10.605469zm0 0" fill="#444"/><path d="m319.859375 148.488281v42.425781l-42.425781 42.425782h-42.429688v-42.425782l42.429688-42.425781zm0 0" fill="#5a5a5a"/><path d="m235.003906 233.339844 84.855469-84.851563v42.425781l-42.425781 42.425782zm0 0" fill="#444"/><path d="m235.003906 190.914062-21.210937-21.210937-159.101563 95.457031 53.035156 53.035156 84.851563-42.425781zm0 0" fill="#5a5a5a"/><path d="m150.152344 318.195312v42.425782l-64.800782 151.375-84.855468-84.851563 107.230468-108.949219zm0 0" fill="#ff9f00"/><path d="m21.710938 448.355469 128.441406-130.160157v42.425782l-64.800782 151.375zm0 0" fill="#ff7816"/><path d="m362.285156 318.195312-42.425781 42.425782-42.425781-42.425782-5.304688-37.125 47.730469-5.300781zm0 0" fill="#444"/><path d="m235.003906 190.914062 84.855469 84.855469-84.855469 84.851563 21.214844 84.851562-63.640625 21.214844-21.210937-84.855469-63.640626-63.636719zm0 0" fill="#6e6e6e"/><path d="m128.9375 339.40625 127.28125-127.277344 63.640625 63.640625-84.855469 84.851563 21.214844 84.851562-63.640625 21.214844-21.210937-84.855469zm0 0" fill="#5a5a5a"/><path d="m181.96875 307.585938 42.425781-42.425782 21.214844 21.214844-42.425781 42.425781zm0 0" fill="#444"/><path d="m383.496094 42.421875 42.429687 42.425781-84.855469 127.28125-63.636718-63.640625zm0 0" fill="#ff9f00"/><path d="m404.710938 63.636719 21.214843 21.210937-84.855469 127.28125-42.425781-42.425781zm0 0" fill="#ff7816"/></svg>