<svg height="430pt" viewBox="-65 0 430 430.08" width="430pt" xmlns="http://www.w3.org/2000/svg"><path d="m150.226562 163.839844c-79.175781 0-143.359374 64.1875-143.359374 143.359375v28.476562c0 18.203125 14.761718 32.964844 32.96875 32.964844h35.296874v39.394531c0 8.40625 6.8125 15.21875 15.21875 15.21875h119.75c8.40625 0 15.21875-6.8125 15.21875-15.21875v-39.394531h35.300782c18.207031 0 32.964844-14.761719 32.964844-32.964844v-28.476562c0-79.171875-64.183594-143.359375-143.359376-143.359375zm0 0" fill="#d8d8d8"/><g fill="#54596e"><path d="m150.226562 163.839844v-6.828125c-82.949218.003906-150.1835932 67.242187-150.1874995 150.1875v28.476562c.0039063 21.976563 17.8164065 39.785157 39.7929685 39.789063h28.476563v32.570312c0 12.179688 9.867187 22.042969 22.042968 22.042969h119.75c12.175782 0 22.042969-9.867187 22.046876-22.042969v-32.570312h28.472656c21.980468 0 39.789062-17.8125 39.792968-39.789063v-28.476562c-.003906-82.945313-67.238281-150.183594-150.1875-150.1875v13.65625c37.722657.003906 71.8125 15.273437 96.542969 39.988281 24.71875 24.730469 39.988281 58.820312 39.992188 96.542969v28.476562c-.003907 7.238281-2.917969 13.726563-7.65625 18.480469-4.753907 4.742188-11.246094 7.652344-18.484375 7.65625h-35.300782c-1.796874 0-3.558593.726562-4.828124 2-1.269532 1.269531-2 3.027344-2 4.828125v39.394531c-.007813 4.632813-3.757813 8.382813-8.390626 8.390625h-119.75c-4.632812-.007812-8.382812-3.757812-8.390624-8.390625v-39.394531c0-1.800781-.730469-3.554687-2-4.828125-1.269532-1.269531-3.03125-2-4.828126-2h-35.296874c-7.242188-.003906-13.734376-2.914062-18.484376-7.65625-4.742187-4.753906-7.652343-11.242188-7.65625-18.480469v-28.476562c.003907-37.722657 15.269532-71.8125 39.992188-96.542969 24.726562-24.714844 58.820312-39.984375 96.539062-39.988281zm0 0"/><path d="m259.453125 310.160156c0-22.433594-29.792969-52.226562-52.226563-52.226562-22.433593 0-40.613281 18.183594-40.613281 40.617187 0 22.4375 18.179688 40.621094 40.613281 40.621094 22.433594 0 52.226563-6.578125 52.226563-29.011719zm0 0"/><path d="m36.90625 310.160156c0-22.433594 29.789062-52.226562 52.222656-52.226562s40.617188 18.1875 40.617188 40.621094c0 22.433593-18.1875 40.621093-40.621094 40.621093s-52.21875-6.582031-52.21875-29.015625zm0 0"/><path d="m102.441406 402.773438v20.480468c0 3.769532 3.054688 6.824219 6.824219 6.824219s6.828125-3.054687 6.828125-6.824219v-20.480468c0-3.769532-3.058594-6.828126-6.828125-6.828126s-6.824219 3.058594-6.824219 6.828126"/><path d="m129.746094 402.773438v20.480468c0 3.769532 3.058594 6.824219 6.828125 6.824219s6.824219-3.054687 6.824219-6.824219v-20.480468c0-3.769532-3.054688-6.828126-6.824219-6.828126s-6.828125 3.058594-6.828125 6.828126"/><path d="m157.054688 402.773438v20.480468c0 3.769532 3.054687 6.824219 6.824218 6.824219 3.769532 0 6.828125-3.054687 6.828125-6.824219v-20.480468c0-3.769532-3.058593-6.828126-6.828125-6.828126-3.769531 0-6.824218 3.058594-6.824218 6.828126"/><path d="m184.359375 402.773438v20.480468c0 3.769532 3.058594 6.824219 6.828125 6.824219s6.824219-3.054687 6.824219-6.824219v-20.480468c0-3.769532-3.054688-6.828126-6.824219-6.828126s-6.828125 3.058594-6.828125 6.828126"/><path d="m146.695312 332.984375-19.367187 29.050781c-1.886719 2.824219.136719 6.605469 3.53125 6.605469h38.734375c3.390625 0 5.417969-3.78125 3.53125-6.605469l-19.367188-29.050781c-1.675781-2.523437-5.382812-2.523437-7.0625 0zm0 0"/><path d="m95.613281 238.933594h109.226563c3.769531 0 6.828125-3.058594 6.828125-6.828125s-3.058594-6.824219-6.828125-6.824219h-109.226563c-3.769531 0-6.828125 3.054688-6.828125 6.824219s3.058594 6.828125 6.828125 6.828125"/></g><path d="m116.09375 150.1875h68.265625v81.917969h-68.265625zm0 0" fill="#fff"/><path d="m184.359375 232.105469v-6.824219h-61.4375v-68.269531h54.613281v75.09375h6.824219v-6.824219 6.824219h6.828125v-81.917969c0-1.800781-.730469-3.554688-2-4.828125-1.269531-1.269531-3.03125-2-4.828125-2h-68.265625c-1.796875 0-3.558594.726563-4.828125 2-1.269531 1.269531-2 3.027344-2 4.828125v81.917969c0 1.796875.730469 3.554687 2 4.828125 1.273437 1.269531 3.03125 1.996094 4.828125 1.996094h68.265625c1.796875 0 3.554687-.726563 4.828125-1.996094 1.269531-1.273438 2-3.03125 2-4.828125zm0 0" fill="#54596e"/><path d="m157.054688 204.800781v-47.789062c0-3.769531-3.058594-6.824219-6.828126-6.824219-3.769531 0-6.828124 3.054688-6.828124 6.824219v47.789062c0 3.769531 3.058593 6.824219 6.828124 6.824219 3.769532 0 6.828126-3.054688 6.828126-6.824219" fill="#54596e"/><path d="m75.132812 116.054688h150.1875v34.132812h-150.1875zm0 0" fill="#fff35f"/><path d="m225.320312 150.1875v-6.828125h-143.359374v-20.480469h136.53125v27.308594h6.828124v-6.828125 6.828125h6.828126v-34.132812c0-1.800782-.730469-3.554688-2-4.828126-1.273438-1.269531-3.03125-2-4.828126-2h-150.1875c-1.796874 0-3.554687.726563-4.828124 2-1.269532 1.269532-1.996094 3.027344-1.996094 4.828126v34.132812c0 1.796875.726562 3.554688 2 4.824219 1.269531 1.273437 3.027344 2 4.824218 2h150.1875c1.796876 0 3.554688-.726563 4.824219-2 1.273438-1.269531 2.003907-3.027344 2.003907-4.824219zm0 0" fill="#54596e"/><path d="m150.226562 6.828125c-15.078124 0-27.304687 12.226563-27.304687 27.304687v81.921876h54.613281v-81.921876c0-15.078124-12.226562-27.304687-27.308594-27.304687zm0 0" fill="#55a6ff"/><path d="m150.226562 6.828125v-6.828125c-18.851562.00390625-34.128906 15.28125-34.132812 34.132812v81.921876c0 1.796874.726562 3.554687 2 4.824218 1.269531 1.273438 3.027344 2 4.828125 2h54.613281c1.796875 0 3.554688-.726562 4.824219-2 1.273437-1.269531 2-3.027344 2-4.824218v-81.921876c-.003906-18.851562-15.277344-34.12890575-34.132813-34.132812v13.652344c11.308594.019531 20.460938 9.175781 20.480469 20.480468v75.09375h-40.960937v-75.09375c.019531-11.304687 9.175781-20.460937 20.480468-20.480468zm0 0" fill="#54596e"/><path d="m150.226562 27.308594h-20.480468c-3.769532 0-6.824219 3.054687-6.824219 6.824218 0 3.769532 3.054687 6.828126 6.824219 6.828126h20.480468c3.769532 0 6.828126-3.058594 6.828126-6.828126 0-3.769531-3.058594-6.824218-6.828126-6.824218" fill="#54596e"/><path d="m150.226562 54.613281h-20.480468c-3.769532 0-6.824219 3.058594-6.824219 6.828125 0 3.769532 3.054687 6.824219 6.824219 6.824219h20.480468c3.769532 0 6.828126-3.054687 6.828126-6.824219 0-3.769531-3.058594-6.828125-6.828126-6.828125" fill="#54596e"/><path d="m150.226562 81.921875h-20.480468c-3.769532 0-6.824219 3.054687-6.824219 6.824219 0 3.769531 3.054687 6.828125 6.824219 6.828125h20.480468c3.769532 0 6.828126-3.058594 6.828126-6.828125 0-3.769532-3.058594-6.824219-6.828126-6.824219" fill="#54596e"/></svg>