<?xml version="1.0" encoding="iso-8859-1"?>
<!-- Generator: Adobe Illustrator 19.0.0, SVG Export Plug-In . SVG Version: 6.00 Build 0)  -->
<svg version="1.1" id="Capa_1" xmlns="http://www.w3.org/2000/svg" xmlns:xlink="http://www.w3.org/1999/xlink" x="0px" y="0px"
	 viewBox="0 0 514.512 514.512" style="enable-background:new 0 0 514.512 514.512;" xml:space="preserve">
<g>
	<path style="fill:#FCB645;" d="M124.32,422.968c2.608-9.264,2.336-27.168-0.928-38.432c-0.608-0.224-1.216-0.448-1.824-0.672
		c-4.944,4.512-7.856,9.856-10.176,15.52c-7.76,20.272-0.032,25.92,0.096,41.92c-12.704-16.784-23.552-34.592-32.544-53.12
		C80.32,367,90.288,375.624,96.48,346.872c1.136-5.84,2.032-11.792,1.456-18.752c-0.544-0.352-1.088-0.704-1.616-1.04
		c-5.648,2.992-9.52,7.184-12.928,11.808c-11.888,17.088-5.072,22.992-9.216,38.992c-8.176-18.512-14.528-37.696-19.04-57.248
		c3.792-15.568,7.552-12.656,16.976-22.096c5.536-5.68,12.128-19.536,13.344-30.912c-0.464-0.448-0.912-0.912-1.36-1.376
		c-5.904,1.408-10.4,4.384-14.496,7.84c-16.72,14.8-6.624,17.584-16.96,34.656c-3.696-19.36-5.616-39.024-5.744-58.736
		c9.616-22.48,15.568-7.168,31.824-29.536c2.992-4.352,5.776-8.912,7.648-15.12c-0.336-0.56-0.688-1.104-1.024-1.664
		c-5.808-0.128-10.544,1.616-15.024,3.856c-19.04,10.304-9.44,16.144-23.248,29.248c0.672-19.248,3.04-38.48,7.152-57.456
		c11.136-16.96,9.152-9.728,25.152-14.944c8.096-2.72,17.6-12.864,21.664-20.704c-0.176-0.608-0.384-1.232-0.592-1.856
		c-8.976-2.608-20.896,0.56-27.152,6.72c-7.152,7.216-6.112,11.488-15.584,16.4c4.992-18.848,11.744-37.36,20.24-55.312
		c0.16,0.208,0.336,0.416,0.496,0.64c20.56-21.056,18.368-1.568,39.744-14.672c3.984-2.592,7.904-5.52,11.776-10.432
		c-0.048-0.672-0.112-1.344-0.16-2.016c-7.52-4.624-19.04-4.352-26.08,0.208c-7.6,5.088-8.928,10.576-18.352,12.528
		c0.064-0.416,0.08-0.816,0.16-1.232c13.776-25.552,31.28-49.728,52.544-71.728c-20.144,19.472-37.296,40.944-51.424,63.84
		c0.96-15.328,0.832-29.648-10.192-41.696c-0.72,0.272-1.44,0.528-2.16,0.8c-11.136,19.568-12.976,41.904,1.168,60.528
		c-8.096,15.392-14.896,31.344-20.4,47.648c-2.64-15.232-8.336-30.384-20.48-39.728c-0.64,0.4-1.28,0.816-1.92,1.232
		c-5.968,22.384-1.856,46.352,15.552,61.536c-4.16,16.176-7.104,32.64-8.784,49.232c-6.656-14.496-15.696-28.592-30.064-36.112
		c-0.528,0.528-1.056,1.072-1.6,1.6c-0.384,24.128,9.664,47.248,30.064,59.504c-0.432,16.384,0.352,32.8,2.352,49.152
		C30.064,287.512,17.36,274.984,1.216,269.8c-0.4,0.64-0.816,1.28-1.216,1.92c5.52,24.24,20.672,45.328,44.336,54.4
		c3.232,15.952,7.648,31.744,13.248,47.216c-20.08-16.016-35.088-21.696-47.04-23.296c-0.256,0.72-0.512,1.44-0.752,2.16
		c11.488,23.136,31.312,41.216,58.096,46.256c6.832,14.896,14.816,29.408,23.984,43.424c-24.944-11.92-41.808-14.624-54.08-14.08
		c-0.08,0.768-0.16,1.552-0.24,2.32c17.504,20.976,41.808,34.896,71.072,35.136c7.12,9.056,14.768,17.84,22.976,26.32
		c4.32-4.32,8.64-8.64,12.96-12.96c-9.408-9.088-18.16-18.64-26.224-28.56C116.464,436.12,120.752,435.176,124.32,422.968z"/>
	<path style="fill:#FCB645;" d="M456.928,373.368c5.616-15.472,10.016-31.264,13.248-47.216c21.12-8.096,38.192-27.44,44.336-54.4
		c-0.4-0.64-0.8-1.28-1.216-1.92c-16.16,5.184-28.848,17.744-38.976,30.672c2-16.336,2.784-32.768,2.352-49.152
		c20.432-12.288,30.448-35.424,30.064-59.504c-0.528-0.528-1.056-1.072-1.6-1.6c-14.272,7.472-23.328,21.472-30.064,36.112
		c-1.68-16.592-4.624-33.056-8.784-49.232c14.48-12.368,22.544-35.344,15.552-61.552c-0.64-0.416-1.28-0.816-1.92-1.232
		c-12.208,9.392-17.872,24.624-20.48,39.728c-5.504-16.32-12.304-32.256-20.4-47.664c14.128-18.704,12.368-40.832,1.152-60.528
		c-0.72-0.272-1.44-0.528-2.16-0.8c-11.008,12.048-11.152,26.368-10.192,41.712c-14.128-22.896-31.28-44.368-51.424-63.84
		c21.264,22,38.768,46.176,52.544,71.728c0.08,0.416,0.096,0.8,0.16,1.232c-9.424-1.968-10.752-7.456-18.368-12.528
		c-7.04-4.56-18.56-4.832-26.08-0.208c-0.048,0.672-0.112,1.344-0.16,2.016c5.2,6.624,15.952,14.64,24.096,15.328
		c14.512,1.04,12.352-5.664,27.424,9.776c0.16-0.208,0.32-0.432,0.496-0.64c8.496,17.936,15.248,36.464,20.24,55.312
		c-15.952-8.288-7.824-17.584-28.176-23.056c-4.544-1.072-9.232-1.616-14.56-0.08c-0.208,0.624-0.416,1.248-0.624,1.872
		c2.912,5.632,6.352,9.392,9.92,12.864c20.064,18.48,21.664-0.16,36.912,22.8c4.112,18.976,6.496,38.208,7.152,57.456
		c-15.584-14.8-3.616-18.64-23.248-29.248c-4.48-2.24-9.2-4-15.008-3.856c-0.336,0.56-0.688,1.104-1.024,1.664
		c3.232,10.784,11.952,22.128,18.144,25.984c11.872,7.248,14.48,2.672,21.328,18.672c-0.128,19.712-2.048,39.392-5.744,58.736
		c-9.696-16-0.464-20.064-16.96-34.656c-4.096-3.472-8.592-6.432-14.496-7.84c-0.448,0.464-0.912,0.928-1.36,1.376
		c0.704,6.672,2.672,11.968,4.848,17.136c11.744,26.032,20.064,13.648,25.472,35.872c-4.512,19.552-10.864,38.736-19.04,57.248
		c-3.52-13.616-0.144-10.656-2.112-23.024c-1.744-10.368-10.24-22.592-20.032-27.776c-0.544,0.352-1.088,0.704-1.632,1.04
		c-3.072,37.632,17.52,37.296,18.992,60.064c-8.992,18.528-19.84,36.336-32.544,53.12c0.128-16,7.856-21.632,0.096-41.92
		c-2.32-5.664-5.232-11.008-10.176-15.52c-0.608,0.224-1.216,0.448-1.824,0.672c-3.264,11.248-3.536,29.152-0.928,38.432
		c3.584,12.256,7.856,13.152,6,27.056c-8.08,9.936-16.816,19.472-26.224,28.56c4.32,4.32,8.64,8.64,12.96,12.96
		c8.192-8.48,15.856-17.264,22.96-26.32c12.592-0.096,23.056-2.336,32.64-6.224c13.2-6,26.432-14.512,38.432-28.864
		c-0.08-0.768-0.16-1.552-0.24-2.32c-12.272-0.528-29.136,2.16-54.08,14.08c9.168-14.016,17.152-28.528,23.984-43.424
		c26.928-5.056,46.688-23.264,58.096-46.256c-0.256-0.72-0.496-1.44-0.752-2.16C492.016,351.672,477.008,357.336,456.928,373.368z"
		/>
</g>
<polygon style="fill:#FFCC5B;" points="257.264,116.216 296,235.416 421.312,235.416 319.92,309.08 358.656,428.264 257.264,354.6 
	155.872,428.264 194.608,309.08 93.2,235.416 218.528,235.416 "/>
<g>
	<polygon style="fill:#FCB645;" points="257.264,116.216 257.264,286.344 296,235.416 	"/>
	<polygon style="fill:#FCB645;" points="257.264,286.344 421.312,235.416 319.92,309.08 	"/>
	<polygon style="fill:#FCB645;" points="257.264,286.344 358.656,428.264 257.264,354.6 	"/>
	<polygon style="fill:#FCB645;" points="257.264,286.344 194.608,309.08 155.872,428.264 	"/>
	<polygon style="fill:#FCB645;" points="93.2,235.416 218.528,235.416 257.264,286.344 	"/>
</g>
<g style="opacity:0.05;">
	<path style="fill:#010101;" d="M309.104,383.944h-11.44l27.504,19.984c0.176-0.8,0.576-1.488,0.624-2.32
		C326.272,391.96,318.576,383.944,309.104,383.944z"/>
	<path style="fill:#010101;" d="M170.96,417.304l70.272-51.056c0.512-8.976,8.672-15.824,17.648-15.824h14.384
		c8.992-0.16,16.192-7.52,16.192-16.688c0-9.152-7.52-16.688-16.688-16.688h-30.416c-7.856,0-14.224-6.384-14.064-14.064v-1.312
		c-0.496-7.52,5.568-14.064,13.248-14.064h71.152c9.152,0,17.168-6.704,17.824-15.696c0.32-9.648-7.2-17.664-16.848-17.664h-65.76
		c-7.68,0-14.064-6.384-14.064-14.064l0.16-0.976v-0.16c-0.16-8.176,6.544-14.88,14.72-14.88h5.584
		c9.152,0,17.168-6.704,17.824-15.856c0.32-9.648-7.2-17.664-16.848-17.664h-9.68c-4.56,0-8.272-2.208-10.784-5.472l-16.336,50.256
		H93.2l101.392,73.664l-35.168,108.24h11.536V417.304z"/>
	<path style="fill:#010101;" d="M242.656,161.176c0.992-0.224,1.904-0.64,2.976-0.64h26.032l-10.832-33.36h-7.12L242.656,161.176z"
		/>
</g>
<g>
</g>
<g>
</g>
<g>
</g>
<g>
</g>
<g>
</g>
<g>
</g>
<g>
</g>
<g>
</g>
<g>
</g>
<g>
</g>
<g>
</g>
<g>
</g>
<g>
</g>
<g>
</g>
<g>
</g>
</svg>
